<svg width="107" height="112" viewBox="0 0 107 112" fill="none" xmlns="http://www.w3.org/2000/svg">
<path d="M99.0994 54.5379C89.166 35.1556 71.7455 23.4268 52.4681 23.4268C33.1906 23.4268 15.7407 35.1556 5.89565 54.5379L5.07031 56.0001L5.83669 57.4934C15.7702 76.8756 33.1906 88.6045 52.4681 88.6045C71.7455 88.6045 89.1954 77.0312 99.0994 57.4934L99.8658 56.0001L99.0994 54.5379ZM52.4681 82.2268C35.873 82.2268 20.6338 72.4579 11.7909 56.0001C20.6338 39.5423 35.873 29.7734 52.4681 29.7734C69.0632 29.7734 84.1255 39.5734 93.1158 56.0001C84.1255 72.4579 69.0337 82.2268 52.4681 82.2268Z" fill="#00C040"/>
<path d="M53.3222 77.4354C64.4898 77.4354 73.5429 67.8802 73.5429 56.0932C73.5429 44.3062 64.4898 34.751 53.3222 34.751C42.1547 34.751 33.1016 44.3062 33.1016 56.0932C33.1016 67.8802 42.1547 77.4354 53.3222 77.4354Z" fill="#00C040"/>
</svg>
