<svg width="112" height="112" viewBox="0 0 112 112" fill="none" xmlns="http://www.w3.org/2000/svg">
<path d="M104.596 54.5379C94.1116 35.1556 75.7249 23.4268 55.3782 23.4268C35.0316 23.4268 16.6138 35.1556 6.22267 54.5379L5.35156 56.0001L6.16045 57.4934C16.6449 76.8756 35.0316 88.6045 55.3782 88.6045C75.7249 88.6045 94.1427 77.0312 104.596 57.4934L105.405 56.0001L104.596 54.5379ZM55.3782 82.2268C37.8627 82.2268 21.7782 72.4579 12.4449 56.0001C21.7782 39.5423 37.8627 29.7734 55.3782 29.7734C72.8938 29.7734 88.7916 39.5734 98.2805 56.0001C88.7916 72.4579 72.8627 82.2268 55.3782 82.2268Z" fill="#EAF6FF"/>
<path d="M56.2802 34.7511C52.0619 34.7818 47.9474 36.062 44.4562 38.4299C40.965 40.7978 38.2539 44.1471 36.6652 48.0549C35.0765 51.9627 34.6815 56.2537 35.53 60.3859C36.3786 64.5181 38.4327 68.3061 41.4329 71.2716C44.4331 74.237 48.2448 76.2469 52.3865 77.0472C56.5283 77.8476 60.8144 77.4027 64.7034 75.7686C68.5925 74.1345 71.91 71.3845 74.2371 67.866C76.5642 64.3475 77.7963 60.2183 77.778 55.9999C77.7658 53.192 77.1996 50.414 76.1118 47.8252C75.0241 45.2365 73.4362 42.8878 71.4391 40.9139C69.442 38.9399 67.075 37.3794 64.4738 36.3219C61.8725 35.2644 59.0882 34.7306 56.2802 34.7511ZM56.2802 71.2133C53.3006 71.1826 50.3964 70.2721 47.9325 68.5963C45.4686 66.9204 43.5549 64.5539 42.4316 61.7939C41.3083 59.0339 41.0255 56.0036 41.6188 53.0834C42.2122 50.1633 43.6551 47.4836 45.7665 45.3808C47.8778 43.2781 50.5634 41.8461 53.4859 41.2647C56.4085 40.6833 59.4376 40.9784 62.193 42.1129C64.9484 43.2475 67.3071 45.1709 68.9728 47.6416C70.6386 50.1124 71.5372 53.0202 71.5558 55.9999C71.5641 58.0054 71.1742 59.9925 70.4087 61.8461C69.6432 63.6996 68.5173 65.3828 67.0964 66.798C65.6754 68.2131 63.9877 69.3321 62.131 70.09C60.2743 70.848 58.2856 71.2298 56.2802 71.2133Z" fill="#EAF6FF"/>
</svg>
