<svg width="112" height="112" viewBox="0 0 112 112" fill="none" xmlns="http://www.w3.org/2000/svg">
<path d="M96.4441 105.778H40.4441C39.619 105.778 38.8277 105.45 38.2442 104.867C37.6608 104.283 37.333 103.492 37.333 102.667V34.2224C37.333 33.3973 37.6608 32.606 38.2442 32.0226C38.8277 31.4391 39.619 31.1113 40.4441 31.1113H96.4441C97.2692 31.1113 98.0606 31.4391 98.644 32.0226C99.2275 32.606 99.5552 33.3973 99.5552 34.2224V102.667C99.5552 103.492 99.2275 104.283 98.644 104.867C98.0606 105.45 97.2692 105.778 96.4441 105.778ZM43.5552 99.5558H93.333V37.3336H43.5552V99.5558Z" fill="#EAF6FF"/>
<path d="M49.7773 49.7778H87.1107V56.0001H49.7773V49.7778Z" fill="#EAF6FF"/>
<path d="M49.7773 62.2222H87.1107V68.4444H49.7773V62.2222Z" fill="#EAF6FF"/>
<path d="M49.7773 74.6665H87.1107V80.8887H49.7773V74.6665Z" fill="#EAF6FF"/>
<path d="M18.6666 74.6666V12.4444H74.6666V9.33328C74.6666 8.50816 74.3388 7.71684 73.7553 7.13339C73.1719 6.54994 72.3806 6.22217 71.5554 6.22217H15.5554C14.7303 6.22217 13.939 6.54994 13.3556 7.13339C12.7721 7.71684 12.4443 8.50816 12.4443 9.33328V77.7777C12.4443 78.6029 12.7721 79.3942 13.3556 79.9776C13.939 80.5611 14.7303 80.8888 15.5554 80.8888H18.6666V74.6666Z" fill="#EAF6FF"/>
<path d="M31.1109 87.111V24.8887H87.1109V21.7776C87.1109 20.9525 86.7831 20.1612 86.1997 19.5777C85.6162 18.9943 84.8249 18.6665 83.9998 18.6665H27.9998C27.1747 18.6665 26.3833 18.9943 25.7999 19.5777C25.2164 20.1612 24.8887 20.9525 24.8887 21.7776V90.2221C24.8887 91.0472 25.2164 91.8385 25.7999 92.422C26.3833 93.0054 27.1747 93.3332 27.9998 93.3332H31.1109V87.111Z" fill="#EAF6FF"/>
</svg>
